<?xml version="1.0" encoding="UTF-8"?>
<svg id="_レイヤー_1" data-name="レイヤー 1" xmlns="http://www.w3.org/2000/svg" viewBox="0 0 494.05 648">
  <defs>
    <style>
      .cls-1 {
        fill: #0062af;
      }

      .cls-2 {
        fill: #f5d300;
      }

      .cls-3 {
        fill: #fff;
      }

      .cls-4 {
        fill: #231815;
      }
    </style>
  </defs>
  <polygon class="cls-1" points="494.05 212.79 361.07 123.27 366.94 212.79 363.67 276.08 494.05 212.79"/>
  <path class="cls-3" d="m332.83,147.13c0,22.74-18.43,41.14-41.14,41.14s-41.14-18.4-41.14-41.14,18.43-41.11,41.14-41.11,41.14,18.41,41.14,41.11Z"/>
  <path class="cls-4" d="m329.04,155.07c0,11.2-9.09,20.29-20.32,20.29s-20.3-9.09-20.3-20.29,9.09-20.31,20.3-20.31,20.32,9.09,20.32,20.31Z"/>
  <path class="cls-2" d="m238.94,299.82c-2.24-59.07-40.55-124.91-110.57-143.45-57.11-15.12-108.46,9.31-125.43,18.8-.41,2.86-.8,5.79-1.11,8.67-7.69,66.85,9.36,146.11,42.67,214.35,18.33,37.53,46.62,83.57,74.33,125.85,105.9-67.06,122.24-169,120.12-224.22Z"/>
  <path class="cls-1" d="m409.7,188.65c-1.09-13.81-3.56-27.19-7.28-40.07-3.64-13.16-8.48-25.53-14.61-36.9C353.81,45.17,285,0,205.51,0S59.14,43.96,24.7,108.99h0c-8.02,14.24-13.99,30.09-18.04,47.14-1.54,6.24-2.78,12.57-3.72,19.05,16.97-9.49,68.32-33.92,125.43-18.8,70.03,18.54,108.33,84.37,110.57,143.45,2.12,55.23-14.22,157.16-120.12,224.22,43.57,66.38,85.76,123.4,85.76,123.4,1.09,1.24,1.79,0,1.79,0,0,0,113.06-152.73,160.17-249.25,32.54-66.64,49.56-143.78,43.16-209.55Zm-118.02-2.49c-21.64,0-39.19-17.52-39.19-39.19s17.55-39.15,39.19-39.15,39.17,17.55,39.17,39.15-17.51,39.19-39.17,39.19Z"/>
</svg>